<svg version="1.0" xmlns="http://www.w3.org/2000/svg"
 width="200.000000pt" height="200.000000pt" viewBox="0 0 200.000000 200.000000"
 preserveAspectRatio="xMidYMid meet">

<g transform="translate(0.000000,200.000000) scale(0.100000,-0.100000)"
fill="#000000" stroke="none">
<path d="M0 1593 l0 -148 39 85 c21 47 52 113 70 148 l31 62 -70 0 -70 0 0
-147z"/>
<path d="M1852 1733 c28 -55 88 -185 114 -248 l34 -80 0 156 c0 107 -4 159
-12 167 -13 13 -142 17 -136 5z"/>
<path d="M865 1597 c-121 -34 -199 -81 -291 -172 -130 -129 -187 -273 -186
-470 0 -166 56 -306 163 -413 142 -142 308 -201 532 -189 165 10 274 51 419
160 l67 50 -30 28 c-29 27 -29 29 -29 132 0 121 4 137 34 137 11 0 27 4 34 9
18 11 26 80 13 114 l-11 27 -219 0 c-248 0 -241 2 -241 -77 0 -54 11 -65 69
-71 28 -2 56 -11 63 -20 9 -10 14 -58 17 -139 4 -142 6 -137 -89 -174 -74 -28
-174 -27 -255 3 -85 31 -183 130 -229 230 -48 104 -60 166 -53 267 12 180 99
335 228 406 49 27 62 30 149 30 100 -1 151 -17 216 -67 37 -30 89 -114 113
-184 l20 -59 42 3 c22 1 53 9 68 17 27 14 28 14 19 87 -4 40 -16 119 -25 176
l-16 102 -31 0 c-17 0 -78 16 -136 36 -93 32 -119 37 -225 40 -102 3 -132 0
-200 -19z m338 -9 c27 -5 75 -21 107 -34 33 -13 78 -24 100 -24 25 0 40 -5 40
-12 0 -7 9 -76 20 -153 26 -180 26 -171 -15 -185 -57 -19 -76 -11 -94 40 -40
113 -101 189 -187 231 -42 21 -63 24 -154 24 -91 0 -111 -3 -149 -24 -71 -37
-144 -118 -184 -202 -101 -212 -70 -453 79 -618 68 -75 139 -116 227 -132 83
-15 165 -2 240 39 l48 26 -3 139 c-3 158 -4 160 -87 171 -31 4 -51 12 -55 22
-9 24 -7 63 4 84 9 17 25 18 221 16 236 -2 237 -2 225 -74 -6 -38 -19 -52 -52
-52 -30 0 -34 -16 -34 -148 0 -104 2 -118 21 -138 l21 -23 -28 -25 c-47 -41
-175 -112 -240 -134 -265 -90 -549 -27 -726 162 -62 65 -124 190 -139 281 -15
85 -6 243 16 311 38 112 78 178 160 260 63 64 98 90 166 124 134 65 293 83
452 48z"/>
<path d="M860 1537 c-256 -76 -418 -298 -420 -574 0 -95 15 -163 55 -248 42
-89 96 -150 182 -208 106 -72 198 -97 352 -97 144 0 210 13 316 65 92 44 145
88 128 106 -16 16 -18 271 -3 299 5 10 22 21 37 25 15 3 31 11 34 17 18 29 -4
33 -184 32 -168 -1 -182 -3 -182 -19 0 -14 13 -21 59 -30 35 -7 65 -19 73 -30
9 -14 13 -59 13 -170 0 -175 1 -172 -105 -222 -53 -25 -71 -28 -160 -28 -94 0
-105 2 -170 34 -123 61 -223 183 -274 338 -26 77 -29 230 -6 318 53 200 201
350 365 370 120 14 257 -32 331 -112 22 -25 56 -78 76 -119 33 -69 53 -88 68
-64 6 10 -7 117 -26 215 l-9 50 -68 19 c-186 52 -209 56 -307 55 -73 0 -120
-6 -175 -22z"/>
<path d="M1971 458 c-13 -35 -46 -107 -72 -161 -27 -54 -49 -100 -49 -103 0
-2 29 -4 64 -4 42 0 67 5 75 14 8 9 11 62 9 165 l-3 151 -24 -62z"/>
<path d="M1 338 l-1 -148 71 0 c39 0 69 3 67 8 -2 4 -28 59 -59 122 -31 63
-61 126 -67 140 -8 20 -11 -7 -11 -122z"/>
</g>
</svg>
